<svg version="1.1" xmlns="http://www.w3.org/2000/svg" viewBox="0 0 584.5276716426098 298.2561838928683" width="584.5276716426098" height="298.2561838928683">
<rect x="0" y="0" width="584.5276716426098" height="298.2561838928683" fill="#ffffff"></rect><g stroke-linecap="round" transform="translate(223.2294538691723 125.76040429575025) rotate(0 136.900146484375 41.32798767089844)"><path d="M102.56 1.49 C117.42 -0.58, 136.78 -1.31, 153.04 -0.65 C169.31 0.01, 185.54 2.89, 200.14 5.45 C214.74 8.01, 229.59 11.06, 240.65 14.7 C251.7 18.35, 260.98 22.65, 266.46 27.31 C271.94 31.97, 274.18 37.66, 273.53 42.66 C272.88 47.67, 268.92 52.93, 262.58 57.34 C256.24 61.75, 246.7 65.51, 235.51 69.13 C224.33 72.75, 210.29 76.68, 195.47 79.05 C180.65 81.42, 162.92 82.96, 146.59 83.35 C130.26 83.74, 113.15 83.03, 97.5 81.38 C81.84 79.74, 65.62 76.6, 52.68 73.47 C39.73 70.33, 28.39 66.82, 19.82 62.57 C11.24 58.32, 3.95 52.94, 1.24 47.97 C-1.48 42.99, 0.15 37.52, 3.54 32.74 C6.92 27.97, 12.7 23.62, 21.53 19.31 C30.37 15, 39.42 10.13, 56.53 6.88 C73.64 3.62, 109.34 0.68, 124.18 -0.22 C139.02 -1.13, 145.48 0.58, 145.56 1.43 M158.72 1.71 C174.72 1.96, 193.4 4.44, 207.86 7.02 C222.32 9.59, 235.74 13.33, 245.48 17.18 C255.21 21.02, 261.52 25.4, 266.26 30.1 C270.99 34.79, 274.91 40.57, 273.89 45.36 C272.86 50.15, 267.18 54.34, 260.1 58.84 C253.02 63.34, 243.01 68.95, 231.42 72.37 C219.82 75.79, 206.04 77.52, 190.54 79.36 C175.04 81.21, 154.99 83.18, 138.43 83.43 C121.88 83.69, 106.64 82.6, 91.19 80.9 C75.74 79.2, 58.5 76.49, 45.73 73.23 C32.96 69.98, 22.09 65.92, 14.57 61.39 C7.04 56.86, 2.16 51.15, 0.6 46.03 C-0.97 40.91, 1.2 35.71, 5.18 30.69 C9.17 25.66, 15.16 20.13, 24.5 15.88 C33.84 11.63, 47.05 7.94, 61.23 5.19 C75.4 2.45, 93.34 0.34, 109.55 -0.57 C125.76 -1.47, 150.14 -0.44, 158.47 -0.22 C166.8 -0.01, 159.67 -0.01, 159.52 0.72" stroke="#e67700" stroke-width="1" fill="none"></path></g><g stroke-linecap="round"><g transform="translate(361.3418806269848 166.68459863168775) rotate(0 77.57448764063884 0.09238166915997681)"><path d="M-0.07 0.41 C25.88 0.76, 130.63 1.03, 156.71 0.92 M-1.56 -0.42 C24.11 -0.3, 129.44 -0.94, 155.6 -0.71" stroke="#1864ab" stroke-width="1" fill="none"></path></g></g><g stroke-linecap="round"><g transform="translate(360.2276228144848 164.03051537973462) rotate(0 0.2743471610502297 60.69431446276141)"><path d="M0.6 0.85 C0.57 21.1, -0.77 101.16, -0.86 121.13 M-0.55 0.26 C-0.14 20.23, 1.42 99.89, 1.41 119.64" stroke="#1864ab" stroke-width="1" fill="none"></path></g></g><g stroke-linecap="round"><g transform="translate(359.93007642776604 165.51263207895337) rotate(0 -39.72376044310164 39.84471047371159)"><path d="M0.07 0.89 C-13.03 14.12, -65.45 66.37, -78.5 79.38 M-1.35 0.31 C-14.63 13.23, -66.58 65.01, -79.52 77.79" stroke="#1864ab" stroke-width="1" fill="none"></path></g></g><g transform="translate(422.5276716426098 240.88824243051587) rotate(0 76 12.5)"><text x="0" y="17" font-size="20px" fill="#1864ab" text-anchor="start" style="white-space: pre;" direction="ltr">Origin [X, Y, Z]</text></g><g stroke-linecap="round" transform="translate(292.8747255843638 45.63502209241469) rotate(0 63.204271482839886 121.3105809002268)"><path d="M72.61 0.75 C80.12 1.15, 88.52 10.11, 95.39 18.19 C102.27 26.27, 109.15 36.89, 113.88 49.25 C118.6 61.61, 121.75 77.15, 123.73 92.35 C125.71 107.55, 126.74 125.14, 125.77 140.45 C124.8 155.77, 122.04 171.07, 117.91 184.25 C113.78 197.43, 107.58 210.5, 100.97 219.55 C94.35 228.6, 85.92 234.99, 78.22 238.53 C70.51 242.08, 62.66 243.22, 54.73 240.83 C46.8 238.45, 37.71 232.21, 30.64 224.24 C23.57 216.27, 17.15 205.42, 12.3 193 C7.44 180.57, 3.41 164.73, 1.49 149.69 C-0.43 134.65, -0.47 118.08, 0.78 102.75 C2.03 87.43, 4.97 70.78, 9 57.72 C13.03 44.66, 18.56 33.34, 24.97 24.39 C31.38 15.45, 38.27 7.51, 47.46 4.04 C56.64 0.56, 73.76 2.44, 80.09 3.55 C86.42 4.66, 85.74 8.81, 85.44 10.69 M63.22 -0.25 C70.97 -1.97, 81.07 3.51, 88.59 9.72 C96.11 15.93, 102.61 26, 108.33 37.01 C114.06 48.02, 119.87 61.57, 122.92 75.78 C125.98 89.98, 127.09 106.65, 126.65 122.22 C126.22 137.79, 123.32 155.09, 120.33 169.19 C117.35 183.3, 114.48 195.81, 108.75 206.84 C103.01 217.87, 93.68 229.59, 85.92 235.36 C78.15 241.14, 70.32 242.1, 62.17 241.5 C54.02 240.89, 44.54 237.79, 37.01 231.76 C29.47 225.72, 22.57 216.37, 16.95 205.27 C11.34 194.17, 5.96 179.27, 3.33 165.15 C0.71 151.03, 1.02 135.86, 1.2 120.55 C1.38 105.24, 1.29 87.64, 4.39 73.31 C7.49 58.97, 13.72 45.39, 19.8 34.53 C25.88 23.67, 33.62 14.13, 40.87 8.14 C48.11 2.15, 59.31 -0.48, 63.28 -1.41 C67.25 -2.35, 64.59 0.36, 64.67 2.54" stroke="#a61e4d" stroke-width="1" fill="none"></path></g><g stroke-linecap="round"><g transform="translate(361.5220420210072 164.70050883802534) rotate(0 -80.09264766569393 -47.03714054224008)"><path d="M-0.47 -0.22 C-27.32 -15.75, -135.06 -76.51, -161.66 -92.06 M1.48 -1.38 C-24.96 -16.75, -132.53 -78.64, -159.53 -93.85" stroke="#2b8a3e" stroke-width="1" fill="none"></path></g></g><g stroke-linecap="round" transform="translate(168.2317546582513 47.22376292155798) rotate(344.520205698333 15.497487710174823 13.43897984916596)"><path d="M20.98 1.08 C24.15 2.2, 28.27 5.29, 29.94 7.93 C31.61 10.56, 31.81 14.04, 30.99 16.86 C30.16 19.69, 27.8 23.05, 24.98 24.86 C22.15 26.66, 17.52 27.84, 14.03 27.68 C10.55 27.51, 6.35 25.89, 4.05 23.87 C1.74 21.86, 0.45 18.56, 0.21 15.6 C-0.04 12.64, 0.82 8.67, 2.6 6.12 C4.38 3.56, 7.55 1, 10.91 0.25 C14.27 -0.49, 20.45 1.15, 22.75 1.62 C25.06 2.1, 24.59 2.94, 24.74 3.12 M12.39 1.65 C15.22 0.89, 19.75 -0.67, 22.82 0.22 C25.9 1.11, 29.86 3.9, 30.85 6.99 C31.83 10.09, 30.04 15.62, 28.75 18.78 C27.45 21.95, 25.52 24.74, 23.09 25.96 C20.67 27.19, 17.37 26.73, 14.2 26.11 C11.03 25.48, 6.36 24.27, 4.08 22.21 C1.81 20.14, 0.64 16.71, 0.54 13.7 C0.44 10.7, 1.33 6.62, 3.5 4.18 C5.66 1.75, 11.85 -0.11, 13.51 -0.88 C15.16 -1.65, 13.73 -0.91, 13.41 -0.43" stroke="#000000" stroke-width="1" fill="none"></path></g><g transform="translate(199.10230477924574 60.72857263481265) rotate(344.520205698333 -6.053658246166265 5.026759334159934)" stroke="none"><path fill="#000000" d="M -0.24,2.29 Q -0.24,2.29 -1.40,2.17 -2.56,2.05 -3.79,1.87 -5.02,1.69 -6.06,2.06 -7.10,2.42 -7.88,3.36 -8.66,4.30 -9.10,5.45 -9.54,6.61 -10.01,7.69 -10.47,8.77 -9.18,8.23 -7.88,7.69 -6.80,6.94 -5.71,6.18 -4.92,5.38 -4.14,4.57 -3.31,3.60 -2.48,2.64 -1.99,1.93 -1.50,1.21 -1.33,0.99 -1.15,0.78 -0.93,0.61 -0.71,0.45 -0.45,0.34 -0.19,0.23 0.07,0.18 0.34,0.14 0.62,0.16 0.90,0.19 1.16,0.28 1.43,0.36 1.66,0.51 1.90,0.66 2.09,0.86 2.28,1.06 2.42,1.30 2.56,1.55 2.64,1.81 2.71,2.08 2.72,2.36 2.73,2.64 2.68,2.91 2.62,3.18 2.50,3.43 2.38,3.68 1.53,4.41 0.67,5.14 -0.94,6.05 -2.57,6.97 -4.34,7.93 -6.11,8.89 -7.24,9.35 -8.36,9.80 -9.60,10.17 -10.84,10.54 -12.45,9.77 -14.06,9.00 -14.13,7.48 -14.20,5.96 -13.14,4.56 -12.08,3.17 -10.96,2.57 -9.85,1.97 -8.66,1.42 -7.48,0.87 -7.31,0.84 -7.14,0.80 -6.87,0.73 -6.60,0.66 -6.33,0.66 -6.05,0.65 -5.78,0.72 -5.51,0.78 -5.26,0.90 -5.01,1.03 -4.80,1.21 -4.59,1.39 -4.43,1.62 -4.27,1.85 -4.16,2.11 -4.06,2.36 -4.02,2.64 -3.99,2.92 -4.02,3.19 -4.05,3.47 -4.14,3.73 -4.24,3.99 -4.39,4.22 -4.55,4.45 -4.75,4.64 -4.96,4.83 -5.20,4.96 -5.45,5.09 -6.88,6.00 -8.31,6.92 -9.18,7.57 -10.05,8.23 -10.27,8.51 -10.48,8.80 -10.70,8.97 -10.92,9.15 -11.17,9.26 -11.42,9.38 -11.69,9.43 -11.97,9.49 -12.25,9.48 -12.52,9.46 -12.79,9.38 -13.06,9.30 -13.30,9.16 -13.54,9.02 -13.74,8.83 -13.93,8.63 -14.08,8.40 -14.23,8.16 -14.31,7.90 -14.40,7.63 -14.42,7.36 -14.44,7.08 -14.40,6.80 -14.35,6.53 -14.24,6.27 -14.13,6.02 -13.96,5.80 -13.79,5.58 -13.08,4.73 -12.38,3.89 -11.60,2.91 -10.81,1.94 -8.47,2.70 -6.12,3.46 -6.14,3.67 -6.15,3.89 -6.22,4.08 -6.30,4.28 -6.44,4.44 -6.58,4.61 -6.76,4.72 -6.94,4.82 -7.15,4.87 -7.36,4.92 -7.57,4.89 -7.78,4.87 -7.97,4.78 -8.16,4.69 -8.32,4.55 -8.47,4.40 -8.57,4.21 -8.67,4.03 -8.71,3.82 -8.74,3.61 -8.71,3.40 -8.67,3.19 -8.58,3.00 -8.48,2.81 -8.32,2.67 -8.17,2.52 -7.98,2.43 -7.78,2.34 -7.57,2.32 -7.36,2.29 -7.15,2.34 -6.95,2.38 -6.76,2.49 -6.58,2.60 -6.44,2.77 -6.31,2.93 -6.23,3.12 -6.15,3.32 -6.14,3.53 -6.12,3.75 -6.18,3.95 -6.24,4.16 -6.36,4.33 -6.47,4.51 -6.64,4.64 -6.81,4.77 -7.01,4.83 -7.21,4.90 -7.43,4.90 -7.64,4.90 -7.84,4.83 -8.04,4.77 -8.21,4.64 -8.38,4.51 -8.50,4.33 -8.62,4.16 -8.68,3.95 -8.73,3.75 -8.73,3.75 -8.73,3.75 -7.90,4.19 -7.07,4.63 -7.89,5.67 -8.72,6.70 -9.60,7.75 -10.48,8.80 -10.70,8.97 -10.92,9.15 -11.17,9.26 -11.42,9.38 -11.69,9.43 -11.97,9.49 -12.25,9.48 -12.52,9.46 -12.79,9.38 -13.06,9.30 -13.30,9.16 -13.54,9.02 -13.74,8.83 -13.93,8.63 -14.08,8.40 -14.23,8.16 -14.31,7.90 -14.40,7.63 -14.42,7.36 -14.44,7.08 -14.40,6.80 -14.35,6.53 -14.24,6.27 -14.13,6.02 -13.96,5.80 -13.79,5.58 -12.99,4.83 -12.20,4.08 -10.70,3.01 -9.20,1.94 -8.17,1.37 -7.14,0.80 -6.87,0.73 -6.60,0.66 -6.33,0.66 -6.05,0.65 -5.78,0.72 -5.51,0.78 -5.26,0.90 -5.01,1.03 -4.80,1.21 -4.59,1.39 -4.43,1.62 -4.27,1.85 -4.16,2.11 -4.06,2.36 -4.02,2.64 -3.99,2.92 -4.02,3.19 -4.05,3.47 -4.14,3.73 -4.24,3.99 -4.39,4.22 -4.55,4.45 -4.75,4.64 -4.96,4.83 -5.20,4.96 -5.45,5.09 -6.10,5.31 -6.75,5.53 -8.00,6.17 -9.25,6.81 -10.24,6.37 -11.23,5.92 -9.70,5.34 -8.17,4.76 -6.54,3.87 -4.90,2.99 -3.20,2.10 -1.50,1.21 -1.33,1.00 -1.15,0.78 -0.93,0.61 -0.71,0.45 -0.45,0.34 -0.19,0.23 0.07,0.18 0.34,0.14 0.62,0.16 0.90,0.19 1.16,0.27 1.43,0.36 1.66,0.51 1.90,0.66 2.09,0.86 2.28,1.06 2.42,1.30 2.56,1.55 2.63,1.81 2.71,2.08 2.72,2.36 2.73,2.64 2.68,2.91 2.62,3.18 2.50,3.43 2.38,3.68 1.96,4.33 1.54,4.98 0.57,6.14 -0.39,7.29 -1.25,8.20 -2.11,9.11 -3.30,10.06 -4.48,11.00 -5.36,11.59 -6.25,12.18 -7.29,12.56 -8.34,12.94 -9.53,12.82 -10.72,12.69 -11.99,12.38 -13.26,12.07 -13.96,11.24 -14.67,10.40 -14.79,9.16 -14.90,7.92 -14.45,6.65 -13.99,5.38 -13.54,4.14 -13.10,2.90 -12.25,1.50 -11.40,0.11 -10.50,-0.66 -9.60,-1.45 -8.08,-2.14 -6.57,-2.83 -5.39,-2.84 -4.21,-2.84 -3.14,-2.69 -2.07,-2.53 -0.91,-2.41 0.24,-2.29 0.51,-2.23 0.78,-2.17 1.03,-2.04 1.28,-1.91 1.49,-1.73 1.70,-1.55 1.86,-1.33 2.02,-1.10 2.12,-0.84 2.23,-0.58 2.26,-0.31 2.30,-0.03 2.27,0.23 2.24,0.51 2.15,0.77 2.05,1.03 1.90,1.27 1.75,1.50 1.54,1.69 1.34,1.87 1.09,2.01 0.85,2.14 0.58,2.21 0.31,2.28 0.03,2.29 -0.24,2.29 -0.24,2.29 L -0.24,2.29 Z"></path></g><g transform="translate(88.5098301378593 88.44912148762768) rotate(0 58.5 12.500000000000014)"><text x="0" y="17" font-size="20px" fill="#087f5b" text-anchor="start" style="white-space: pre;" direction="ltr">r (distance)</text></g><g transform="translate(262.6532942617936 10) rotate(0 109 12.5)"><text x="0" y="17" font-size="20px" fill="#a61e4d" text-anchor="start" style="white-space: pre;" direction="ltr">theta (up/down angle)</text></g><g transform="translate(10 154.68440292941156) rotate(0 100.5 12.5)"><text x="0" y="17" font-size="20px" fill="#e67700" text-anchor="start" style="white-space: pre;" direction="ltr">phi (left/right angle)</text></g><g transform="translate(24.98129294463405 10.253156164555946) rotate(0 108.49999999999997 12.5)"><text x="0" y="17" font-size="20px" fill="#000000" text-anchor="start" style="white-space: pre;" direction="ltr">Coords [r, theta, phi]</text></g></svg>
